<?xml version="1.0" standalone="no"?>
<!DOCTYPE svg PUBLIC "-//W3C//DTD SVG 20010904//EN"
 "http://www.w3.org/TR/2001/REC-SVG-20010904/DTD/svg10.dtd">
<svg version="1.0" xmlns="http://www.w3.org/2000/svg"
 width="500.000000pt" height="500.000000pt" viewBox="0 0 500.000000 500.000000"
 preserveAspectRatio="xMidYMid meet">
<metadata>
Created by potrace 1.11, written by Peter Selinger 2001-2013
</metadata>
<g transform="translate(0.000000,500.000000) scale(0.100000,-0.100000)"
fill="#000000" stroke="none">
<path d="M2197 4975 c-193 -24 -431 -80 -617 -146 -296 -106 -650 -336 -887
-577 -88 -88 -243 -282 -243 -302 0 -5 -28 -51 -61 -102 -147 -223 -288 -568
-343 -838 -40 -202 -49 -309 -44 -573 5 -207 9 -262 31 -378 97 -501 318 -932
662 -1288 298 -309 697 -548 1106 -661 63 -17 144 -40 180 -51 95 -27 179 -36
399 -44 466 -16 809 56 1215 255 390 190 737 492 972 845 178 267 323 607 369
865 3 14 14 75 26 135 18 95 22 147 22 375 1 278 -5 343 -50 562 -82 396 -229
716 -458 1003 -125 156 -336 351 -516 476 -331 231 -747 391 -1153 444 -143
18 -456 18 -610 0z m392 -219 c-3 -3 -11 5 -18 17 -13 21 -12 21 5 5 10 -10
16 -20 13 -22z m-32 -28 c-3 -8 -6 -5 -6 6 -1 11 2 17 5 13 3 -3 4 -12 1 -19z
m-212 -38 c3 -5 1 -10 -4 -10 -6 0 -11 5 -11 10 0 6 2 10 4 10 3 0 8 -4 11
-10z m-610 -540 c3 -5 1 -10 -4 -10 -6 0 -11 5 -11 10 0 6 2 10 4 10 3 0 8 -4
11 -10z m2259 -686 c5 -14 4 -15 -9 -4 -17 14 -19 20 -6 20 5 0 12 -7 15 -16z
m-14 -28 c0 -2 -7 -6 -15 -10 -8 -3 -15 -1 -15 4 0 6 7 10 15 10 8 0 15 -2 15
-4z m-3131 -220 c79 -14 159 -49 220 -95 51 -38 106 -130 121 -200 18 -87 9
-205 -20 -266 -22 -45 -135 -175 -152 -175 -4 0 -22 -9 -41 -20 l-35 -21 58
-108 c32 -59 104 -190 159 -289 56 -100 101 -184 101 -187 0 -3 -44 -5 -97 -5
l-98 0 -104 193 c-58 105 -125 229 -149 275 l-45 82 -159 0 -158 0 0 -275 0
-275 -95 0 -95 0 0 688 0 687 256 2 c178 2 279 -2 333 -11z m3891 -485 c0
-530 -5 -581 -56 -668 -58 -100 -138 -164 -254 -204 -95 -33 -287 -33 -382 -1
-116 40 -202 111 -252 209 -46 91 -48 115 -47 512 0 207 1 436 1 509 l0 132
85 0 85 0 1 -142 c2 -553 1 -539 18 -556 15 -15 15 -15 -2 -9 -16 6 -17 -3
-12 -145 6 -173 13 -207 54 -268 58 -87 161 -127 298 -117 124 9 202 58 250
155 l28 57 3 512 3 512 62 3 c34 2 74 1 90 -1 l27 -3 0 -487z m-1468 461 c187
-75 276 -214 266 -415 -6 -119 -33 -191 -97 -256 -104 -106 -195 -131 -488
-131 l-213 0 0 -269 0 -269 -67 -4 c-38 -2 -80 -2 -95 0 l-27 3 -1 685 -1 685
333 -3 c320 -3 335 -4 390 -26z m-1276 -322 c134 -46 222 -136 282 -289 24
-61 26 -78 27 -216 0 -132 -3 -158 -23 -218 -26 -75 -89 -167 -148 -215 -154
-128 -415 -132 -567 -11 -33 27 -40 29 -55 17 -15 -12 -16 -11 -4 4 11 14 8
23 -24 65 -20 26 -43 47 -50 45 -8 -2 -14 2 -14 8 0 5 4 10 9 10 5 0 -2 32
-15 71 -13 39 -24 77 -24 85 0 8 -3 14 -7 14 -9 0 -8 127 1 207 25 219 141
370 331 432 57 18 216 13 281 -9z m2125 -283 c-10 -9 -11 -8 -5 6 3 10 9 15
12 12 3 -3 0 -11 -7 -18z m-124 -179 c-3 -8 -6 -5 -6 6 -1 11 2 17 5 13 3 -3
4 -12 1 -19z m-2710 -270 c-3 -8 -6 -5 -6 6 -1 11 2 17 5 13 3 -3 4 -12 1 -19z
m123 -232 c0 -3 -4 -8 -10 -11 -5 -3 -10 -1 -10 4 0 6 5 11 10 11 6 0 10 -2
10 -4z m897 -98 c-3 -8 -6 -5 -6 6 -1 11 2 17 5 13 3 -3 4 -12 1 -19z m-247
-64 c0 -8 -4 -12 -10 -9 -5 3 -10 10 -10 16 0 5 5 9 10 9 6 0 10 -7 10 -16z
m-690 -18 c0 -3 -4 -8 -10 -11 -5 -3 -10 -1 -10 4 0 6 5 11 10 11 6 0 10 -2
10 -4z m680 -16 c0 -5 -5 -10 -11 -10 -5 0 -7 5 -4 10 3 6 8 10 11 10 2 0 4
-4 4 -10z m422 -12 c-7 -7 -12 -8 -12 -2 0 6 3 14 7 17 3 4 9 5 12 2 2 -3 -1
-11 -7 -17z m-1062 -8 c0 -5 -5 -10 -11 -10 -5 0 -7 5 -4 10 3 6 8 10 11 10 2
0 4 -4 4 -10z m600 -250 c0 -5 -5 -10 -11 -10 -5 0 -7 5 -4 10 3 6 8 10 11 10
2 0 4 -4 4 -10z m10 -54 c0 -3 -4 -8 -10 -11 -5 -3 -10 -1 -10 4 0 6 5 11 10
11 6 0 10 -2 10 -4z m80 -147 c0 -6 -4 -7 -10 -4 -5 3 -10 11 -10 16 0 6 5 7
10 4 6 -3 10 -11 10 -16z m-52 -13 c-7 -8 -16 -12 -21 -9 -11 7 2 23 19 23 12
0 12 -2 2 -14z m302 -36 c0 -5 -5 -10 -11 -10 -5 0 -7 5 -4 10 3 6 8 10 11 10
2 0 4 -4 4 -10z m-230 -130 c0 -5 -2 -10 -4 -10 -3 0 -8 5 -11 10 -3 6 -1 10
4 10 6 0 11 -4 11 -10z m-110 -10 c0 -5 -5 -10 -11 -10 -5 0 -7 5 -4 10 3 6 8
10 11 10 2 0 4 -4 4 -10z"/>
<path d="M446 3071 c-1 -3 -1 -120 2 -258 l4 -253 182 0 c170 0 184 2 231 24
99 47 145 121 145 234 0 131 -69 216 -199 243 -59 12 -359 21 -365 10z"/>
<path d="M2740 2806 l0 -266 205 0 c180 0 211 2 258 20 99 37 157 126 157 240
0 106 -46 188 -132 236 l-53 29 -217 3 -218 3 0 -265z"/>
<path d="M1755 2728 c-32 -11 -92 -52 -113 -78 -79 -95 -111 -307 -67 -455 45
-157 177 -245 322 -216 139 28 215 141 230 346 15 195 -73 368 -205 405 -46
12 -128 12 -167 -2z"/>
</g>
</svg>
